<svg xmlns="http://www.w3.org/2000/svg" width="512" height="512" viewBox="0 0 512 512" version="1.1">
	<path d="M 138.500 7.665 C 127.621 8.417, 109.160 11.180, 103 12.978 C 99.425 14.021, 93.800 15.424, 90.500 16.094 C 87.200 16.765, 79.100 19.774, 72.500 22.782 C 63.173 27.033, 58.925 29.656, 53.428 34.556 C 45.188 41.902, 36.837 50.468, 31.140 57.416 C 23.887 66.261, 16.555 85.309, 11.476 108.500 C 8.168 123.603, 7.853 136.275, 7.700 260.500 C 7.526 400.639, 7.418 398.266, 15.002 421.500 C 20.715 439.006, 26.818 450.013, 37 461.179 C 54.552 480.426, 64.801 487.573, 89 497.438 C 107.490 504.975, 95.911 504.500, 261 504.500 L 409.500 504.500 418.482 501.687 C 428.557 498.532, 448.689 489.197, 457.015 483.820 C 468.448 476.436, 482.269 461.427, 487.579 450.628 C 489.437 446.848, 491.346 443.248, 491.820 442.628 C 493.961 439.826, 502.287 417.153, 503.201 411.634 C 504.447 404.119, 504.984 120.731, 503.775 108.668 C 502.293 93.873, 500.249 87.335, 491.542 69.543 L 483.202 52.500 472.044 41.234 C 461.426 30.513, 460.295 29.679, 448.693 24.007 C 441.097 20.294, 433.287 17.308, 427.980 16.086 C 423.294 15.008, 418.119 13.614, 416.480 12.989 C 414.841 12.363, 407.650 10.900, 400.500 9.737 C 387.813 7.673, 384.565 7.618, 265.500 7.471 C 198.400 7.388, 141.250 7.475, 138.500 7.665 M 270.406 165.903 C 267.210 167.354, 265.933 168.711, 264.583 172.084 C 258.616 186.998, 277.628 197.608, 289.337 185.898 C 293.033 182.202, 293.226 181.708, 292.784 177.099 C 292.293 171.993, 289.571 167.475, 285.666 165.285 C 282.460 163.488, 275.065 163.787, 270.406 165.903 M 116.521 182.500 C 116.257 184.150, 115.854 202.375, 115.625 223 C 115.175 263.581, 114.652 268.610, 109.339 283.411 L 106.500 291.322 101.120 293.063 C 98.161 294.020, 95.355 295.410, 94.885 296.152 C 93.704 298.015, 93.775 336.277, 94.965 339.407 C 96.207 342.675, 99.571 343.483, 107.330 342.379 L 113.500 341.500 113.779 328.214 C 114.057 314.978, 114.068 314.925, 116.626 313.952 C 118.177 313.363, 134.099 313.080, 156.846 313.238 L 194.500 313.500 194.500 326.688 C 194.500 336.166, 194.866 340.245, 195.799 341.188 C 197.191 342.593, 213.219 343.107, 214.542 341.789 C 215.107 341.226, 215.299 323.531, 215.023 297.323 C 215.003 295.396, 214.158 295.009, 207.673 293.963 L 200.347 292.782 200.167 236.718 C 200.069 205.883, 199.727 180.395, 199.408 180.077 C 199.090 179.760, 180.417 179.500, 157.915 179.500 L 117 179.500 116.521 182.500 M 156.232 200.749 L 135.963 201.042 136.002 230.771 C 136.049 267.198, 135.342 272.509, 128.461 287.482 C 127.201 290.223, 126.383 292.811, 126.644 293.233 C 127.282 294.266, 176.155 294.188, 177.789 293.152 C 179.460 292.091, 179.395 294.391, 179.183 243.750 C 179.039 209.374, 178.732 200.049, 177.750 200.228 C 177.063 200.354, 167.379 200.588, 156.232 200.749 M 396 203.726 C 350.358 205.219, 348.582 205.389, 341.876 208.904 C 333.471 213.311, 326.708 220.351, 324.502 226.994 C 322.039 234.410, 322.782 247.831, 325.989 253.851 C 329.405 260.262, 334.535 264.751, 340.649 266.679 C 343.592 267.606, 346 268.765, 346 269.255 C 346 269.744, 344.793 272.249, 343.318 274.822 C 340.967 278.923, 338.233 283.234, 324.858 303.921 C 323.286 306.353, 322 309.345, 322 310.570 C 322 312.587, 322.638 312.860, 328.750 313.467 C 340.804 314.665, 345.266 312.705, 350.500 303.914 C 351.600 302.066, 353.484 298.967, 354.686 297.027 C 355.889 295.087, 358.314 290.800, 360.076 287.500 C 366.718 275.062, 369.558 273, 380.042 273 C 384.357 273, 385.937 273.393, 386.393 274.582 C 386.727 275.452, 387 284.241, 387 294.113 C 387 307.556, 387.314 312.181, 388.250 312.532 C 391.072 313.591, 407.161 313.511, 408.055 312.433 C 409.059 311.224, 409.461 205.555, 408.469 203.949 C 408.146 203.427, 407.346 203.093, 406.691 203.208 C 406.036 203.322, 401.225 203.555, 396 203.726 M 245.690 204.916 C 238.912 205.423, 237.624 205.830, 235.937 208 C 233.581 211.031, 230.739 220.140, 231.180 223.247 C 231.497 225.481, 231.616 225.497, 245.250 225.123 L 259 224.746 259 227.246 C 259 228.621, 258.099 231.782, 256.998 234.271 C 255.897 236.760, 254.098 243.163, 253 248.500 C 251.902 253.837, 250.113 260.216, 249.026 262.674 C 247.938 265.133, 246.540 269.924, 245.919 273.322 C 245.297 276.720, 243.936 282.232, 242.894 285.570 C 240.385 293.613, 240.496 296.165, 243.713 304.365 C 247.148 313.121, 249.621 314.428, 261.570 313.801 C 270.325 313.341, 270.072 313.457, 286.210 302.592 C 306.561 288.892, 309 286.858, 308.996 283.589 C 308.989 277.183, 302.738 271.084, 297.539 272.409 C 294.256 273.245, 280.449 282.264, 268.809 291.174 C 265.537 293.679, 261 294.988, 261 293.428 C 261 293.114, 262.071 290.976, 263.380 288.678 C 264.689 286.380, 266.773 280.225, 268.010 275 C 269.247 269.775, 271.508 261.450, 273.035 256.500 C 277.798 241.056, 287.013 207.585, 287.006 205.750 C 287.001 204.147, 285.597 204.014, 270.250 204.166 C 261.038 204.257, 249.986 204.594, 245.690 204.916 M 352.510 225.876 C 348.469 226.741, 346.616 230.867, 346.616 239 C 346.616 252.322, 350.876 254.890, 373.080 254.958 L 386.660 255 386.847 240.621 C 387.033 226.449, 387.003 226.234, 384.768 225.635 C 381.838 224.850, 356.417 225.040, 352.510 225.876" stroke="none" fill="black" fill-rule="evenodd"/>
</svg>