<?xml version="1.0" encoding="UTF-8" standalone="no"?>
<svg
   id="Flat"
   viewBox="0 0 208 208"
   version="1.1"
   sodipodi:docname="3dots.svg"
   width="208"
   height="208"
   inkscape:version="1.1 (c4e8f9e, 2021-05-24)"
   xmlns:inkscape="http://www.inkscape.org/namespaces/inkscape"
   xmlns:sodipodi="http://sodipodi.sourceforge.net/DTD/sodipodi-0.dtd"
   xmlns="http://www.w3.org/2000/svg"
   xmlns:svg="http://www.w3.org/2000/svg">
  <defs
     id="defs14" />
  <sodipodi:namedview
     id="namedview12"
     pagecolor="#ffffff"
     bordercolor="#111111"
     borderopacity="1"
     inkscape:pageshadow="0"
     inkscape:pageopacity="0"
     inkscape:pagecheckerboard="1"
     showgrid="false"
     inkscape:zoom="2.4414062"
     inkscape:cx="103.6288"
     inkscape:cy="103.8336"
     inkscape:window-width="1920"
     inkscape:window-height="1027"
     inkscape:window-x="0"
     inkscape:window-y="25"
     inkscape:window-maximized="1"
     inkscape:current-layer="Flat" />
  <path
     d="M 104,0 A 104,104 0 1 0 208,104 104.11791,104.11791 0 0 0 104,0 Z m 0,192 a 88,88 0 1 1 88,-88 88.09957,88.09957 0 0 1 -88,88 z m 12,-88 a 12,12 0 1 1 -12,-12 12.01375,12.01375 0 0 1 12,12 z m 48,0 a 12,12 0 1 1 -12,-12 12.01375,12.01375 0 0 1 12,12 z m -96,0 A 12,12 0 1 1 56,92 12.01375,12.01375 0 0 1 68,104 Z"
     id="path9" />
</svg>
